<svg width="16" height="16" viewBox="0 0 16 16" fill="none" xmlns="http://www.w3.org/2000/svg">
<g clip-path="url(#clip0_137_37)">
<path d="M8 16C12.4183 16 16 12.4183 16 8C16 3.58172 12.4183 0 8 0C3.58172 0 0 3.58172 0 8C0 12.4183 3.58172 16 8 16Z" fill="#DD2E44"/>
<path d="M8 14C11.3137 14 14 11.3137 14 8C14 4.68629 11.3137 2 8 2C4.68629 2 2 4.68629 2 8C2 11.3137 4.68629 14 8 14Z" fill="white"/>
<path d="M8.00011 12.4444C10.4547 12.4444 12.4446 10.4546 12.4446 7.99999C12.4446 5.54539 10.4547 3.55554 8.00011 3.55554C5.54551 3.55554 3.55566 5.54539 3.55566 7.99999C3.55566 10.4546 5.54551 12.4444 8.00011 12.4444Z" fill="#DD2E44"/>
<path d="M7.99992 10.6666C9.47268 10.6666 10.6666 9.47274 10.6666 7.99998C10.6666 6.52722 9.47268 5.33331 7.99992 5.33331C6.52716 5.33331 5.33325 6.52722 5.33325 7.99998C5.33325 9.47274 6.52716 10.6666 7.99992 10.6666Z" fill="white"/>
<path d="M8.00008 9.33335C8.73646 9.33335 9.33341 8.7364 9.33341 8.00002C9.33341 7.26364 8.73646 6.66669 8.00008 6.66669C7.2637 6.66669 6.66675 7.26364 6.66675 8.00002C6.66675 8.7364 7.2637 9.33335 8.00008 9.33335Z" fill="#DD2E44"/>
<path opacity="0.2" d="M8.10677 8.12531L13.9485 13.3493C13.9485 13.3493 12.7721 14.8498 10.4419 15.62L7.81299 8.18664L8.10677 8.12531Z" fill="black"/>
<path d="M8.13074 8.44445C8.04312 8.44474 7.9574 8.41897 7.88447 8.37042C7.81154 8.32187 7.75469 8.25273 7.72115 8.17179C7.68761 8.09085 7.6789 8.00176 7.69612 7.91585C7.71333 7.82995 7.75571 7.7511 7.81785 7.68934L8.06807 7.43912C8.15099 7.35613 8.26349 7.30949 8.3808 7.30945C8.49812 7.30941 8.61064 7.35597 8.69363 7.43889C8.77661 7.52182 8.82325 7.63431 8.82329 7.75163C8.82334 7.86894 8.77677 7.98147 8.69385 8.06445L8.44318 8.31467C8.40229 8.35591 8.35361 8.38862 8.29997 8.41089C8.24634 8.43317 8.18881 8.44458 8.13074 8.44445Z" fill="#FFAC33"/>
<path d="M10.6738 3.10265C10.4947 4.02665 10.6738 5.18753 10.6738 5.18753L13.809 1.90398C13.9383 1.25776 13.5743 0.156423 13.0454 0.020423C12.5165 -0.115577 11.2325 0.377312 10.6738 3.10265ZM12.8974 5.3262C11.9734 5.50531 10.8125 5.3262 10.8125 5.3262L14.0961 2.19109C14.7423 2.06176 15.8436 2.42576 15.9796 2.95465C16.1156 3.48353 15.6227 4.76753 12.8974 5.3262Z" fill="#55ACEE"/>
<path d="M14.5769 1.99336L9.41152 7.81647C9.25063 7.97736 8.66797 8.20847 8.29597 7.83691C7.92441 7.46536 8.10974 6.91247 8.27063 6.75114L14.14 1.55603C14.14 1.55603 14.4404 1.2738 14.6551 1.48847C14.8697 1.70314 14.5769 1.99336 14.5769 1.99336Z" fill="#3A87C2"/>
</g>
<defs>
<clipPath id="clip0_137_37">
<rect width="16" height="16" fill="white"/>
</clipPath>
</defs>
</svg>
