<svg width="16" height="16" viewBox="0 0 16 16" fill="none" xmlns="http://www.w3.org/2000/svg">
<g clip-path="url(#clip0_137_12)">
<path d="M8 16C12.4183 16 16 12.4183 16 8C16 3.58172 12.4183 0 8 0C3.58172 0 0 3.58172 0 8C0 12.4183 3.58172 16 8 16Z" fill="#FFCC4D"/>
<path d="M5.11111 8.44442C5.72476 8.44442 6.22222 7.74798 6.22222 6.88887C6.22222 6.02976 5.72476 5.33331 5.11111 5.33331C4.49746 5.33331 4 6.02976 4 6.88887C4 7.74798 4.49746 8.44442 5.11111 8.44442Z" fill="#664500"/>
<path d="M12.6475 7.90979C12.6208 7.84979 11.9813 6.44445 10.6666 6.44445C9.35239 6.44445 8.71239 7.84979 8.68572 7.90979C8.66688 7.9546 8.66316 8.00432 8.67513 8.05144C8.68709 8.09855 8.71408 8.14049 8.75201 8.17088C8.78994 8.20128 8.83675 8.21848 8.88534 8.21989C8.93393 8.2213 8.98165 8.20683 9.02128 8.17867C9.02661 8.17467 9.58217 7.77779 10.6666 7.77779C11.7448 7.77779 12.2995 8.16934 12.3119 8.17823C12.3512 8.2083 12.3994 8.22436 12.4489 8.22384C12.4983 8.22331 12.5462 8.20624 12.5848 8.17535C12.6234 8.14445 12.6506 8.10151 12.6619 8.05338C12.6733 8.00525 12.6682 7.95469 12.6475 7.90979ZM2.66617 4.8889C2.58367 4.88881 2.50282 4.86577 2.43267 4.82234C2.36252 4.77892 2.30585 4.71682 2.26899 4.64302C2.23213 4.56921 2.21654 4.48659 2.22397 4.40443C2.2314 4.32226 2.26156 4.24379 2.31106 4.17779C3.76084 2.24445 5.69595 2.22223 5.77772 2.22223C5.83609 2.22211 5.89391 2.23349 5.94787 2.25572C6.00184 2.27795 6.0509 2.31059 6.09225 2.35178C6.13361 2.39296 6.16644 2.44189 6.18889 2.49577C6.21133 2.54965 6.22294 2.60742 6.22306 2.66579C6.22317 2.72415 6.21179 2.78197 6.18957 2.83593C6.16734 2.8899 6.1347 2.93896 6.09351 2.98032C6.05232 3.02167 6.00339 3.0545 5.94952 3.07695C5.89564 3.09939 5.83787 3.111 5.7795 3.11112C5.71061 3.11201 4.19372 3.14934 3.02217 4.71112C2.98077 4.76643 2.92703 4.8113 2.86522 4.84217C2.80342 4.87303 2.73525 4.88903 2.66617 4.8889ZM12.8893 6.22223C12.8202 6.22237 12.752 6.20637 12.6902 6.1755C12.6284 6.14464 12.5747 6.09976 12.5333 6.04445C11.3813 4.50845 9.4395 4.87645 9.42039 4.88001C9.36315 4.8916 9.30419 4.89177 9.24689 4.88052C9.18959 4.86926 9.13507 4.84681 9.08647 4.81443C9.03786 4.78206 8.99613 4.7404 8.96367 4.69186C8.9312 4.64332 8.90864 4.58885 8.89728 4.53156C8.87424 4.416 8.89799 4.29602 8.96332 4.19794C9.02864 4.09987 9.13021 4.03172 9.24572 4.00845C9.34839 3.98756 11.7599 3.53201 13.2439 5.51067C13.2936 5.57664 13.3238 5.65512 13.3313 5.73732C13.3388 5.81951 13.3233 5.90218 13.2865 5.97605C13.2497 6.04992 13.193 6.11208 13.1229 6.15556C13.0527 6.19904 12.9718 6.22213 12.8893 6.22223ZM8.92395 12.0187C9.51728 11.8356 10.0924 11.5049 10.0924 10.9076C10.0924 9.74356 7.90928 9.58845 7.66039 9.57467C7.63128 9.57263 7.60206 9.57642 7.57444 9.58582C7.54682 9.59522 7.52135 9.61004 7.49953 9.62941C7.47771 9.64879 7.45999 9.67232 7.44739 9.69864C7.43479 9.72496 7.42758 9.75353 7.42617 9.78267C7.42251 9.8412 7.44213 9.89881 7.48076 9.94293C7.51939 9.98706 7.57389 10.0141 7.63239 10.0182C7.64795 10.0191 9.2035 10.1511 9.2035 10.9076C9.2035 11.664 7.64795 11.796 7.63239 11.7969C7.62617 11.7973 7.62172 11.8009 7.61595 11.8018C7.59346 11.804 7.57151 11.81 7.55106 11.8196L7.54261 11.8245C7.52176 11.8357 7.50298 11.8504 7.48706 11.868C7.48084 11.8747 7.47639 11.8818 7.47106 11.8893C7.46035 11.9032 7.45153 11.9185 7.44483 11.9347C7.4395 11.9476 7.43683 11.9618 7.43417 11.9756C7.43239 11.9858 7.42706 11.9951 7.42617 12.0053C7.42617 12.0102 7.42795 12.0147 7.42795 12.0191C7.42795 12.0236 7.42572 12.0285 7.42617 12.0329C7.42661 12.0436 7.43195 12.0529 7.43417 12.0631C7.43683 12.0769 7.43906 12.0902 7.44439 12.1031C7.45017 12.1165 7.45817 12.1285 7.46617 12.1405C7.47372 12.1511 7.48039 12.1627 7.48928 12.172C7.4995 12.1822 7.5115 12.1902 7.52395 12.1991C7.53461 12.2067 7.54439 12.2142 7.55684 12.22C7.57119 12.226 7.58629 12.2301 7.60172 12.232C7.61239 12.2347 7.62128 12.24 7.63239 12.2409C7.64795 12.2418 9.2035 12.3738 9.2035 13.1302C9.2035 13.8867 7.64795 14.0187 7.63239 14.0196C7.5763 14.0254 7.52452 14.0523 7.48751 14.0949C7.4505 14.1374 7.43102 14.1925 7.43299 14.2488C7.43496 14.3052 7.45825 14.3587 7.49815 14.3986C7.53805 14.4384 7.59158 14.4616 7.64795 14.4636L7.66039 14.4631C7.90928 14.4493 10.0924 14.2942 10.0924 13.1302C10.0924 12.5325 9.51728 12.2018 8.92395 12.0187Z" fill="#664500"/>
<path d="M15.2008 11.468C15.1483 11.288 15.0588 11.1209 14.938 10.9774C14.8172 10.8339 14.6679 10.7172 14.4995 10.6347C14.3053 10.54 14.0915 10.4931 13.8756 10.4977C13.6597 10.5024 13.448 10.5585 13.2581 10.6613C13.2224 10.4485 13.1365 10.2473 13.0074 10.0744C12.8783 9.90143 12.7098 9.76182 12.5159 9.66711C12.1921 9.5092 11.8189 9.48632 11.4783 9.6035C11.1377 9.72068 10.8575 9.96833 10.6995 10.292C10.6528 10.3876 10.6195 10.4862 10.5972 10.5849C10.2528 11.7209 10.8817 13.4031 11.5715 14.1173C12.1181 14.1751 12.8839 14.0293 13.5772 13.7293C14.2462 13.076 14.7956 12.3107 15.2008 11.468Z" fill="#FFAC33"/>
<path d="M15.8461 12.0987C15.9723 11.8403 16.0132 11.5485 15.9629 11.2653C15.9125 10.9822 15.7735 10.7224 15.566 10.5234C15.3584 10.3243 15.093 10.1963 14.8081 10.1579C14.5231 10.1194 14.2333 10.1724 13.9804 10.3093C13.9447 10.0965 13.8587 9.89526 13.7296 9.72234C13.6005 9.54942 13.432 9.4098 13.2381 9.31509C12.9144 9.15731 12.5412 9.13449 12.2006 9.25166C11.86 9.36883 11.5799 9.6164 11.4217 9.93998C11.375 10.0355 11.3417 10.1342 11.3195 10.2329C10.9755 11.3689 11.6039 13.0511 12.2937 13.7653C13.2817 13.8693 14.9946 13.3302 15.6781 12.3604C15.7426 12.2809 15.7995 12.1942 15.8461 12.0987Z" fill="#DD2E44"/>
</g>
<defs>
<clipPath id="clip0_137_12">
<rect width="16" height="16" fill="white"/>
</clipPath>
</defs>
</svg>
