<svg width="16" height="16" viewBox="0 0 16 16" fill="none" xmlns="http://www.w3.org/2000/svg">
<g clip-path="url(#clip0_137_32)">
<path d="M10.5115 10.3542L5.64526 5.48802L9.81682 2.01202L13.9879 6.18314L10.5115 10.3542Z" fill="#BE1931"/>
<path d="M15.3778 6.18309C15.1953 6.36579 14.9787 6.51072 14.7402 6.60961C14.5017 6.70849 14.246 6.75939 13.9878 6.75939C13.7296 6.75939 13.4739 6.70849 13.2354 6.60961C12.9969 6.51072 12.7802 6.36579 12.5978 6.18309L9.8169 3.40265C9.4626 3.03094 9.26769 2.53541 9.27382 2.02193C9.27995 1.50844 9.48664 1.01772 9.84972 0.654573C10.2128 0.29143 10.7035 0.0846667 11.217 0.0784523C11.7305 0.0722379 12.226 0.267065 12.5978 0.621314L15.3778 3.40265C15.5604 3.58519 15.7052 3.80193 15.8041 4.04046C15.9029 4.279 15.9538 4.53467 15.9538 4.79287C15.9538 5.05107 15.9029 5.30674 15.8041 5.54528C15.7052 5.78381 15.5604 6.00054 15.3778 6.18309Z" fill="#DD2E44"/>
<path d="M6.22219 7.92133C6.22219 7.92133 -0.263591 15.5684 0.0835201 15.9169C0.431076 16.2649 8.07863 9.77777 8.07863 9.77777L6.22219 7.92133Z" fill="#99AAB5"/>
<path d="M11.2067 12.4405C11.0241 12.6232 10.8073 12.7681 10.5687 12.8671C10.3301 12.966 10.0743 13.0169 9.81601 13.0169C9.55771 13.0169 9.30193 12.966 9.06331 12.8671C8.82469 12.7681 8.60791 12.6232 8.42534 12.4405L3.55957 7.57378C3.2011 7.20286 3.00271 6.70595 3.00715 6.19014C3.0116 5.67433 3.21852 5.18091 3.58333 4.81622C3.94813 4.45153 4.44162 4.24476 4.95743 4.24049C5.47325 4.23621 5.97009 4.43475 6.3409 4.79334L11.2067 9.65956C11.3893 9.84215 11.5342 10.0589 11.633 10.2975C11.7318 10.5361 11.7827 10.7918 11.7827 11.05C11.7827 11.3082 11.7318 11.5639 11.633 11.8025C11.5342 12.0411 11.3893 12.2579 11.2067 12.4405Z" fill="#DD2E44"/>
</g>
<defs>
<clipPath id="clip0_137_32">
<rect width="16" height="16" fill="white"/>
</clipPath>
</defs>
</svg>
