<svg width="16" height="16" viewBox="0 0 16 16" fill="none" xmlns="http://www.w3.org/2000/svg">
<g clip-path="url(#clip0_137_18)">
<path d="M16 8C16 12.4182 12.4182 16 8 16C3.58222 16 0 12.4182 0 8C0 3.58222 3.58222 0 8 0C12.4182 0 16 3.58222 16 8Z" fill="#FFCC4D"/>
<path d="M12.6475 7.90979C12.6209 7.84979 11.9813 6.44446 10.6666 6.44446C9.35242 6.44446 8.71242 7.84979 8.68575 7.90979C8.66691 7.9546 8.66319 8.00433 8.67515 8.05145C8.68711 8.09856 8.71411 8.14049 8.75204 8.17089C8.78997 8.20128 8.83678 8.21849 8.88537 8.2199C8.93396 8.2213 8.98168 8.20683 9.02131 8.17868C9.02664 8.17468 9.5822 7.77779 10.6666 7.77779C11.7449 7.77779 12.2995 8.16935 12.312 8.17824C12.3512 8.20831 12.3994 8.22436 12.4489 8.22384C12.4983 8.22332 12.5462 8.20625 12.5848 8.17535C12.6234 8.14446 12.6506 8.10152 12.662 8.05338C12.6733 8.00525 12.6682 7.9547 12.6475 7.90979ZM7.3142 7.90979C7.28753 7.84979 6.64797 6.44446 5.33331 6.44446C4.01908 6.44446 3.37908 7.84979 3.35242 7.90979C3.33211 7.95464 3.32731 8.00497 3.33876 8.05285C3.3502 8.10072 3.37726 8.14343 3.41566 8.17424C3.45405 8.20505 3.50161 8.22221 3.55083 8.22301C3.60006 8.22382 3.64815 8.20822 3.68753 8.17868C3.69331 8.17468 4.24842 7.77779 5.33331 7.77779C6.41153 7.77779 6.96619 8.16935 6.97864 8.17824C7.0179 8.20831 7.06611 8.22436 7.11556 8.22384C7.16502 8.22332 7.21287 8.20625 7.25149 8.17535C7.29011 8.14446 7.31727 8.10152 7.32863 8.05338C7.34 8.00525 7.33492 7.9547 7.3142 7.90979ZM7.99997 9.77779C6.38975 9.77779 5.32131 9.59024 3.99997 9.33335C3.6982 9.27512 3.11108 9.33335 3.11108 10.2222C3.11108 12 5.15331 14.2222 7.99997 14.2222C10.8462 14.2222 12.8889 12 12.8889 10.2222C12.8889 9.33335 12.3018 9.27468 12 9.33335C10.6786 9.59024 9.6102 9.77779 7.99997 9.77779Z" fill="#664500"/>
<path d="M4 10.2222C4 10.2222 5.33333 10.6667 8 10.6667C10.6667 10.6667 12 10.2222 12 10.2222C12 10.2222 11.1111 12 8 12C4.88889 12 4 10.2222 4 10.2222Z" fill="white"/>
<path d="M15.5555 4.8889C15.5555 6.11646 14.5609 7.11112 13.3333 7.11112C12.1058 7.11112 11.1111 6.11646 11.1111 4.8889C11.1111 3.66135 12.8889 0.444458 13.3333 0.444458C13.7778 0.444458 15.5555 3.66135 15.5555 4.8889Z" fill="#5DADEC"/>
</g>
<defs>
<clipPath id="clip0_137_18">
<rect width="16" height="16" fill="white"/>
</clipPath>
</defs>
</svg>
