<svg width="16" height="16" viewBox="0 0 16 16" fill="none" xmlns="http://www.w3.org/2000/svg">
<g clip-path="url(#clip0_137_28)">
<path d="M7.99995 16C8.98179 16 9.77772 15.7015 9.77772 15.3334C9.77772 14.9652 8.98179 14.6667 7.99995 14.6667C7.01811 14.6667 6.22217 14.9652 6.22217 15.3334C6.22217 15.7015 7.01811 16 7.99995 16Z" fill="#292F33"/>
<path d="M6.3728 4.76666C6.3728 4.76666 7.50836 15.5547 8.00036 15.5556C8.49191 15.556 9.62702 4.76666 9.62702 4.76666H6.3728Z" fill="#99AAB5"/>
<path d="M7.99989 7.11111C9.96357 7.11111 11.5554 5.51923 11.5554 3.55556C11.5554 1.59188 9.96357 0 7.99989 0C6.03621 0 4.44434 1.59188 4.44434 3.55556C4.44434 5.51923 6.03621 7.11111 7.99989 7.11111Z" fill="#DD2E44"/>
</g>
<defs>
<clipPath id="clip0_137_28">
<rect width="16" height="16" fill="white"/>
</clipPath>
</defs>
</svg>
