<svg width="16" height="16" viewBox="0 0 16 16" fill="none" xmlns="http://www.w3.org/2000/svg">
<g clip-path="url(#clip0_137_23)">
<path d="M8 16C12.4183 16 16 12.4183 16 8C16 3.58172 12.4183 0 8 0C3.58172 0 0 3.58172 0 8C0 12.4183 3.58172 16 8 16Z" fill="#FFCC4D"/>
<path d="M4.67343 10.4982C4.69343 10.5778 5.19254 12.4444 8.0001 12.4444C10.8081 12.4444 11.3068 10.5778 11.3268 10.4982C11.3384 10.4513 11.3345 10.4018 11.3155 10.3574C11.2964 10.3129 11.2634 10.2759 11.2214 10.252C11.1792 10.2281 11.1305 10.2186 11.0824 10.2247C11.0343 10.2309 10.9896 10.2525 10.9548 10.2862C10.9463 10.2946 10.0863 11.1111 8.0001 11.1111C5.91387 11.1111 5.05343 10.2946 5.04543 10.2866C5.01102 10.2526 4.96649 10.2307 4.91855 10.2242C4.87062 10.2178 4.82187 10.227 4.77965 10.2506C4.73728 10.2746 4.70394 10.3118 4.68475 10.3565C4.66556 10.4012 4.66159 10.451 4.67343 10.4982Z" fill="#664500"/>
<path d="M5.33328 7.55557C5.94693 7.55557 6.44439 6.85912 6.44439 6.00001C6.44439 5.1409 5.94693 4.44446 5.33328 4.44446C4.71963 4.44446 4.22217 5.1409 4.22217 6.00001C4.22217 6.85912 4.71963 7.55557 5.33328 7.55557Z" fill="#664500"/>
<path d="M10.6668 7.55557C11.2804 7.55557 11.7779 6.85912 11.7779 6.00001C11.7779 5.1409 11.2804 4.44446 10.6668 4.44446C10.0531 4.44446 9.55566 5.1409 9.55566 6.00001C9.55566 6.85912 10.0531 7.55557 10.6668 7.55557Z" fill="#664500"/>
</g>
<defs>
<clipPath id="clip0_137_23">
<rect width="16" height="16" fill="white"/>
</clipPath>
</defs>
</svg>
