<svg width="16" height="16" viewBox="0 0 16 16" fill="none" xmlns="http://www.w3.org/2000/svg">
<g clip-path="url(#clip0_137_7)">
<path d="M16 8C16 12.4182 12.4182 16 8 16C3.58222 16 0 12.4182 0 8C0 3.58222 3.58222 0 8 0C12.4182 0 16 3.58222 16 8Z" fill="#FFCC4D"/>
<path d="M12.6475 7.9098C12.6208 7.8498 11.9813 6.44447 10.6666 6.44447C9.3524 6.44447 8.7124 7.8498 8.68573 7.9098C8.66689 7.95461 8.66317 8.00434 8.67513 8.05145C8.68709 8.09857 8.71408 8.1405 8.75202 8.1709C8.78995 8.20129 8.83676 8.2185 8.88535 8.2199C8.93393 8.22131 8.98166 8.20684 9.02128 8.17869C9.02662 8.17469 9.58217 7.7778 10.6666 7.7778C11.7448 7.7778 12.2995 8.16935 12.312 8.17824C12.3512 8.20832 12.3994 8.22437 12.4489 8.22385C12.4983 8.22333 12.5462 8.20626 12.5848 8.17536C12.6234 8.14446 12.6506 8.10153 12.6619 8.05339C12.6733 8.00526 12.6682 7.95471 12.6475 7.9098ZM7.31417 7.9098C7.28751 7.8498 6.64795 6.44447 5.33328 6.44447C4.01906 6.44447 3.37906 7.8498 3.3524 7.9098C3.33209 7.95465 3.32728 8.00497 3.33873 8.05285C3.35018 8.10073 3.37724 8.14344 3.41563 8.17425C3.45403 8.20506 3.50159 8.22222 3.55081 8.22302C3.60003 8.22382 3.64812 8.20823 3.68751 8.17869C3.69328 8.17469 4.2484 7.7778 5.33328 7.7778C6.41151 7.7778 6.96617 8.16935 6.97862 8.17824C7.01788 8.20832 7.06609 8.22437 7.11554 8.22385C7.16499 8.22333 7.21285 8.20626 7.25147 8.17536C7.29009 8.14446 7.31725 8.10153 7.32861 8.05339C7.33998 8.00526 7.33489 7.95471 7.31417 7.9098ZM13.7777 7.11113C13.6017 7.11113 13.4346 7.00535 13.3648 6.83158C12.5746 4.85602 10.5991 4.44002 10.5791 4.43558C10.5217 4.42424 10.4671 4.40171 10.4185 4.36925C10.3699 4.3368 10.3281 4.29507 10.2956 4.24645C10.2632 4.19784 10.2406 4.14329 10.2292 4.08594C10.2179 4.02858 10.2179 3.96955 10.2294 3.91223C10.2409 3.8549 10.2636 3.8004 10.2962 3.75186C10.3288 3.70331 10.3706 3.66167 10.4193 3.62933C10.468 3.59698 10.5226 3.57456 10.58 3.56335C10.6374 3.55215 10.6964 3.55237 10.7537 3.56402C10.8542 3.58402 13.2231 4.08313 14.1902 6.50091C14.2173 6.56837 14.2274 6.64144 14.2198 6.71374C14.2121 6.78603 14.1867 6.85533 14.146 6.91557C14.1053 6.9758 14.0504 7.02513 13.9862 7.05923C13.922 7.09332 13.8504 7.11114 13.7777 7.11113ZM2.22217 7.11113C2.14953 7.11112 2.07799 7.09329 2.01383 7.05922C1.94967 7.02515 1.89484 6.97587 1.85414 6.91569C1.81343 6.85552 1.7881 6.78628 1.78036 6.71405C1.77262 6.64182 1.7827 6.56879 1.80973 6.50135C2.77684 4.08358 5.14573 3.58447 5.24617 3.56447C5.36065 3.5437 5.4787 3.56865 5.57498 3.63395C5.67127 3.69926 5.73811 3.79972 5.76115 3.91375C5.78419 4.02779 5.76159 4.14632 5.69821 4.24388C5.63484 4.34145 5.53573 4.41027 5.42217 4.43558C5.33995 4.45246 3.41951 4.87113 2.63506 6.83158C2.60198 6.91405 2.54499 6.98474 2.47141 7.03456C2.39783 7.08438 2.31103 7.11104 2.22217 7.11113ZM7.99995 9.7778C6.38973 9.7778 5.32128 9.59024 3.99995 9.33335C3.69817 9.27513 3.11106 9.33335 3.11106 10.2222C3.11106 12 5.15328 14.2222 7.99995 14.2222C10.8462 14.2222 12.8888 12 12.8888 10.2222C12.8888 9.33335 12.3017 9.27469 12 9.33335C10.6786 9.59024 9.61017 9.7778 7.99995 9.7778Z" fill="#664500"/>
<path d="M4 10.2222C4 10.2222 5.33333 10.6667 8 10.6667C10.6667 10.6667 12 10.2222 12 10.2222C12 10.2222 11.1111 12 8 12C4.88889 12 4 10.2222 4 10.2222Z" fill="white"/>
<path d="M4.82093 12.5462C4.67588 13.1175 4.30984 13.6077 3.80333 13.9091C3.29681 14.2105 2.69132 14.2984 2.12004 14.1533C1.54876 14.0083 1.0585 13.6422 0.757112 13.1357C0.45572 12.6292 0.367884 12.0237 0.512928 11.4524C0.814706 10.2627 3.32937 7.58221 3.76048 7.69154C4.1916 7.80132 5.12271 11.3569 4.82093 12.5462ZM11.1703 12.5462C11.3154 13.1174 11.6815 13.6076 12.188 13.9089C12.6945 14.2102 13.2999 14.298 13.8712 14.1529C14.154 14.0812 14.42 13.9544 14.6539 13.7799C14.8878 13.6054 15.085 13.3864 15.2342 13.1357C15.3835 12.8849 15.4819 12.6071 15.5237 12.3183C15.5656 12.0295 15.5502 11.7353 15.4783 11.4524C15.176 10.2627 12.6614 7.58221 12.2303 7.69154C11.8 7.80132 10.8685 11.3569 11.1703 12.5462Z" fill="#5DADEC"/>
</g>
<defs>
<clipPath id="clip0_137_7">
<rect width="16" height="16" fill="white"/>
</clipPath>
</defs>
</svg>
